# Blender v2.78 (sub 0) OBJ File: ''
# www.blender.org
mtllib board.mtl
o Table
v -53.143799 -1.070393 -43.330399
v 65.395500 -1.070393 -43.330399
v 65.395500 -6.251993 -43.330399
v -53.129799 -0.919193 -43.316299
v 65.381401 -0.919193 -43.316299
v -53.088501 -0.778293 -43.275002
v 65.340202 -0.778293 -43.275002
v -53.022800 -0.657293 -43.209400
v 65.274498 -0.657293 -43.209400
v -52.937302 -0.564393 -43.123798
v 65.189003 -0.564393 -43.123798
v -52.837700 -0.506093 -43.024200
v 65.089302 -0.506093 -43.024200
v -52.730701 -0.486193 -42.917301
v 64.982399 -0.486193 -42.917301
v 65.395500 -1.070412 75.209000
v 65.395500 -6.252012 75.209000
v 65.381401 -0.919212 75.194901
v 65.340202 -0.778312 75.153702
v 65.274498 -0.657312 75.087997
v 65.189003 -0.564412 75.002502
v 65.089302 -0.506112 74.902802
v 64.982399 -0.486212 74.795898
v 55.480801 -0.486195 -33.415699
v 55.480801 -0.486211 65.294296
v -43.229198 -0.486195 -33.415699
v -53.143799 -1.070412 75.209000
v -53.143799 -6.252012 75.209000
v -53.129799 -0.919212 75.194901
v -53.143799 -6.251993 -43.330399
v -53.088501 -0.778312 75.153603
v -53.022800 -0.657312 75.087997
v -52.937302 -0.564412 75.002403
v -52.837700 -0.506112 74.902802
v -52.730701 -0.486212 74.795898
v -43.229198 -0.486211 65.294296
v -30.900400 -0.486201 3.597200
v -43.242401 -0.486201 3.597200
v -43.242401 -0.486203 15.939300
v -18.558300 -0.486201 3.597200
v -30.900400 -0.486203 15.939300
v -6.216200 -0.486201 3.597200
v -18.558300 -0.486203 15.939300
v 6.125800 -0.486201 3.597300
v -6.216200 -0.486203 15.939300
v 18.467899 -0.486201 3.597300
v 6.125800 -0.486203 15.939300
v 30.809999 -0.486201 3.597300
v 18.467899 -0.486203 15.939300
v 43.152000 -0.486201 3.597300
v 30.809999 -0.486203 15.939300
v 55.494099 -0.486201 3.597300
v 43.152000 -0.486203 15.939300
v -30.900400 -0.486199 -8.744800
v -43.242401 -0.486199 -8.744800
v -18.558300 -0.486199 -8.744800
v -6.216200 -0.486199 -8.744800
v 6.125800 -0.486199 -8.744800
v 18.467899 -0.486199 -8.744800
v 30.809999 -0.486199 -8.744800
v 43.152000 -0.486199 -8.744800
v 55.494099 -0.486199 -8.744800
v -30.900400 -0.486197 -21.086901
v -43.242401 -0.486197 -21.086901
v -18.558300 -0.486197 -21.086901
v -6.216200 -0.486197 -21.086901
v 6.125800 -0.486197 -21.086901
v 18.467899 -0.486197 -21.086901
v 30.809999 -0.486197 -21.086901
v 43.152000 -0.486197 -21.086901
v 55.494099 -0.486197 -21.086901
v -30.900299 -0.486195 -33.429001
v -43.242401 -0.486195 -33.429001
v -18.558300 -0.486195 -33.429001
v -6.216200 -0.486195 -33.429001
v 6.125800 -0.486195 -33.429001
v 18.467899 -0.486195 -33.428902
v 30.809999 -0.486195 -33.428902
v 43.152000 -0.486195 -33.428902
v 55.494099 -0.486203 15.939300
v 43.152000 -0.486205 28.281401
v -30.900400 -0.486209 52.965500
v -43.242401 -0.486209 52.965500
v -43.242401 -0.486211 65.307602
v -18.558300 -0.486209 52.965500
v -30.900400 -0.486211 65.307602
v -6.216200 -0.486209 52.965500
v -18.558300 -0.486211 65.307602
v 6.125800 -0.486209 52.965500
v -6.216200 -0.486211 65.307602
v 18.467899 -0.486209 52.965500
v 6.125800 -0.486211 65.307602
v 30.809999 -0.486209 52.965500
v 18.467899 -0.486211 65.307602
v 43.152000 -0.486209 52.965500
v 30.809999 -0.486211 65.307602
v 55.494099 -0.486209 52.965500
v 43.152000 -0.486211 65.307602
v -30.900400 -0.486207 40.623402
v -43.242401 -0.486207 40.623402
v -18.558300 -0.486207 40.623402
v -6.216200 -0.486207 40.623402
v 6.125800 -0.486207 40.623501
v 18.467899 -0.486207 40.623501
v 30.809999 -0.486207 40.623501
v 43.152000 -0.486207 40.623501
v 55.494099 -0.486207 40.623501
v -30.900400 -0.486205 28.281401
v -43.242401 -0.486205 28.281401
v -18.558300 -0.486205 28.281401
v -6.216200 -0.486205 28.281401
v 6.125800 -0.486205 28.281401
v 18.467899 -0.486205 28.281401
v 30.809999 -0.486205 28.281401
v 55.494099 -0.486205 28.281401
v 55.494099 -0.486195 -33.428902
v 55.494099 -0.486211 65.307602
vt 0.6450 0.9346
vt 0.0086 0.9346
vt 0.0086 0.9067
vt 0.0086 0.9352
vt 0.6450 0.9352
vt 0.6450 0.9346
vt 0.0089 0.9355
vt 0.6447 0.9355
vt 0.0092 0.9359
vt 0.6444 0.9359
vt 0.0097 0.9363
vt 0.6439 0.9363
vt 0.0102 0.9369
vt 0.6434 0.9369
vt 0.0108 0.9374
vt 0.6428 0.9374
vt 0.0086 0.9346
vt 0.0086 0.9067
vt 0.0086 0.9352
vt 0.0089 0.9355
vt 0.0092 0.9359
vt 0.0097 0.9363
vt 0.0102 0.9369
vt 0.0108 0.9374
vt 0.5892 0.9911
vt 0.0644 0.9911
vt 0.0644 0.9911
vt 0.6450 0.9346
vt 0.0086 0.9346
vt 0.0086 0.9067
vt 0.6450 0.9352
vt 0.0086 0.9352
vt 0.6450 0.9346
vt 0.0086 0.9346
vt 0.0086 0.9067
vt 0.6450 0.9352
vt 0.0089 0.9355
vt 0.6447 0.9355
vt 0.0092 0.9359
vt 0.6444 0.9359
vt 0.0097 0.9363
vt 0.6439 0.9363
vt 0.0102 0.9369
vt 0.6434 0.9369
vt 0.0108 0.9374
vt 0.6428 0.9374
vt 0.0644 0.9911
vt 0.5892 0.9911
vt 0.6447 0.9355
vt 0.6444 0.9359
vt 0.6439 0.9363
vt 0.6434 0.9369
vt 0.6428 0.9374
vt 0.5892 0.9911
vt 0.2992 0.6067
vt 0.2992 0.8974
vt 0.0086 0.8974
vt 0.7155 0.9687
vt 0.6533 0.9687
vt 0.6533 0.9065
vt 0.7880 0.9687
vt 0.7258 0.9687
vt 0.7258 0.9065
vt 0.7155 0.9687
vt 0.6533 0.9687
vt 0.6533 0.9065
vt 0.7880 0.9687
vt 0.7258 0.9687
vt 0.7258 0.9065
vt 0.7155 0.9687
vt 0.6533 0.9687
vt 0.6533 0.9065
vt 0.7880 0.9687
vt 0.7258 0.9687
vt 0.7258 0.9065
vt 0.7155 0.9687
vt 0.6533 0.9687
vt 0.6533 0.9065
vt 0.7880 0.9687
vt 0.7258 0.9687
vt 0.7258 0.9065
vt 0.7880 0.9687
vt 0.7258 0.9687
vt 0.7258 0.9065
vt 0.7155 0.9687
vt 0.6533 0.9687
vt 0.6533 0.9065
vt 0.7880 0.9687
vt 0.7258 0.9687
vt 0.7258 0.9065
vt 0.7155 0.9687
vt 0.6533 0.9687
vt 0.6533 0.9065
vt 0.7880 0.9687
vt 0.7258 0.9687
vt 0.7258 0.9065
vt 0.7155 0.9687
vt 0.6533 0.9687
vt 0.6533 0.9065
vt 0.7880 0.9687
vt 0.7258 0.9687
vt 0.7258 0.9065
vt 0.7155 0.9687
vt 0.6533 0.9687
vt 0.6533 0.9065
vt 0.7155 0.9687
vt 0.6533 0.9687
vt 0.6533 0.9065
vt 0.7880 0.9687
vt 0.7258 0.9687
vt 0.7258 0.9065
vt 0.7155 0.9687
vt 0.6533 0.9687
vt 0.6533 0.9065
vt 0.7880 0.9687
vt 0.7258 0.9687
vt 0.7258 0.9065
vt 0.7155 0.9687
vt 0.6533 0.9687
vt 0.6533 0.9065
vt 0.7880 0.9687
vt 0.7258 0.9687
vt 0.7258 0.9065
vt 0.7155 0.9687
vt 0.6533 0.9687
vt 0.6533 0.9065
vt 0.7880 0.9687
vt 0.7258 0.9687
vt 0.7258 0.9065
vt 0.7880 0.9687
vt 0.7258 0.9687
vt 0.7258 0.9065
vt 0.7155 0.9687
vt 0.6533 0.9687
vt 0.6533 0.9065
vt 0.7880 0.9687
vt 0.7258 0.9687
vt 0.7258 0.9065
vt 0.7155 0.9687
vt 0.6533 0.9687
vt 0.6533 0.9065
vt 0.7880 0.9687
vt 0.7258 0.9687
vt 0.7258 0.9065
vt 0.7155 0.9687
vt 0.6533 0.9687
vt 0.6533 0.9065
vt 0.7880 0.9687
vt 0.7258 0.9687
vt 0.7258 0.9065
vt 0.7155 0.9687
vt 0.6533 0.9687
vt 0.6533 0.9065
vt 0.7155 0.9687
vt 0.6533 0.9687
vt 0.6533 0.9065
vt 0.7880 0.9687
vt 0.7258 0.9687
vt 0.7258 0.9065
vt 0.7155 0.9687
vt 0.6533 0.9687
vt 0.6533 0.9065
vt 0.7880 0.9687
vt 0.7258 0.9687
vt 0.7258 0.9065
vt 0.7155 0.9687
vt 0.6533 0.9687
vt 0.6533 0.9065
vt 0.7880 0.9687
vt 0.7258 0.9687
vt 0.7258 0.9065
vt 0.7155 0.9687
vt 0.6533 0.9687
vt 0.6533 0.9065
vt 0.7880 0.9687
vt 0.7258 0.9687
vt 0.7258 0.9065
vt 0.7880 0.9687
vt 0.7258 0.9687
vt 0.7258 0.9065
vt 0.7155 0.9687
vt 0.6533 0.9687
vt 0.6533 0.9065
vt 0.7880 0.9687
vt 0.7258 0.9687
vt 0.7258 0.9065
vt 0.7155 0.9687
vt 0.6533 0.9687
vt 0.6533 0.9065
vt 0.7880 0.9687
vt 0.7258 0.9687
vt 0.7258 0.9065
vt 0.7155 0.9687
vt 0.6533 0.9687
vt 0.6533 0.9065
vt 0.7880 0.9687
vt 0.7258 0.9687
vt 0.7258 0.9065
vt 0.7155 0.9687
vt 0.6533 0.9687
vt 0.6533 0.9065
vt 0.7155 0.9687
vt 0.6533 0.9687
vt 0.6533 0.9065
vt 0.7880 0.9687
vt 0.7258 0.9687
vt 0.7258 0.9065
vt 0.7155 0.9687
vt 0.6533 0.9687
vt 0.6533 0.9065
vt 0.7880 0.9687
vt 0.7258 0.9687
vt 0.7258 0.9065
vt 0.7155 0.9687
vt 0.6533 0.9687
vt 0.6533 0.9065
vt 0.7880 0.9687
vt 0.7258 0.9687
vt 0.7258 0.9065
vt 0.7155 0.9687
vt 0.6533 0.9687
vt 0.6533 0.9065
vt 0.7880 0.9687
vt 0.7258 0.9687
vt 0.7258 0.9065
vt 0.7880 0.9687
vt 0.7258 0.9687
vt 0.7258 0.9065
vt 0.7155 0.9687
vt 0.6533 0.9687
vt 0.6533 0.9065
vt 0.7880 0.9687
vt 0.7258 0.9687
vt 0.7258 0.9065
vt 0.7155 0.9687
vt 0.6533 0.9687
vt 0.6533 0.9065
vt 0.7880 0.9687
vt 0.7258 0.9687
vt 0.7258 0.9065
vt 0.7155 0.9687
vt 0.6533 0.9687
vt 0.6533 0.9065
vt 0.7880 0.9687
vt 0.7258 0.9687
vt 0.7258 0.9065
vt 0.7155 0.9687
vt 0.6533 0.9687
vt 0.6533 0.9065
vt 0.6450 0.9067
vt 0.6450 0.9067
vt 0.6450 0.9067
vt 0.6450 0.9067
vt 0.0086 0.6067
vt 0.7155 0.9065
vt 0.7880 0.9065
vt 0.7155 0.9065
vt 0.7880 0.9065
vt 0.7155 0.9065
vt 0.7880 0.9065
vt 0.7155 0.9065
vt 0.7880 0.9065
vt 0.7880 0.9065
vt 0.7155 0.9065
vt 0.7880 0.9065
vt 0.7155 0.9065
vt 0.7880 0.9065
vt 0.7155 0.9065
vt 0.7880 0.9065
vt 0.7155 0.9065
vt 0.7155 0.9065
vt 0.7880 0.9065
vt 0.7155 0.9065
vt 0.7880 0.9065
vt 0.7155 0.9065
vt 0.7880 0.9065
vt 0.7155 0.9065
vt 0.7880 0.9065
vt 0.7880 0.9065
vt 0.7155 0.9065
vt 0.7880 0.9065
vt 0.7155 0.9065
vt 0.7880 0.9065
vt 0.7155 0.9065
vt 0.7880 0.9065
vt 0.7155 0.9065
vt 0.7155 0.9065
vt 0.7880 0.9065
vt 0.7155 0.9065
vt 0.7880 0.9065
vt 0.7155 0.9065
vt 0.7880 0.9065
vt 0.7155 0.9065
vt 0.7880 0.9065
vt 0.7880 0.9065
vt 0.7155 0.9065
vt 0.7880 0.9065
vt 0.7155 0.9065
vt 0.7880 0.9065
vt 0.7155 0.9065
vt 0.7880 0.9065
vt 0.7155 0.9065
vt 0.7155 0.9065
vt 0.7880 0.9065
vt 0.7155 0.9065
vt 0.7880 0.9065
vt 0.7155 0.9065
vt 0.7880 0.9065
vt 0.7155 0.9065
vt 0.7880 0.9065
vt 0.7880 0.9065
vt 0.7155 0.9065
vt 0.7880 0.9065
vt 0.7155 0.9065
vt 0.7880 0.9065
vt 0.7155 0.9065
vt 0.7880 0.9065
vt 0.7155 0.9065
vn 0.0000 0.0000 -1.0000
vn 0.0000 0.0928 -0.9957
vn 0.0000 0.3572 -0.9340
vn 0.4867 0.4328 -0.7588
vn 0.7755 0.2428 -0.5828
vn 0.0000 0.5458 -0.8379
vn 0.5198 0.6777 -0.5201
vn 0.0000 0.7368 -0.6761
vn 0.3851 0.8388 -0.3848
vn 0.0000 0.9043 -0.4269
vn 0.2237 0.9486 -0.2239
vn 0.0000 0.9905 -0.1376
vn 0.0691 0.9952 -0.0691
vn 1.0000 0.0000 0.0000
vn 0.9990 0.0450 -0.0000
vn 0.9957 0.0928 0.0000
vn 0.9598 0.2806 0.0000
vn 0.8378 0.5460 0.0000
vn 0.8788 0.4772 0.0000
vn 0.6763 0.7366 0.0000
vn 0.4269 0.9043 0.0000
vn 0.1376 0.9905 0.0000
vn -0.0000 1.0000 0.0000
vn 0.0000 0.0000 1.0000
vn 0.0000 0.0928 0.9957
vn -1.0000 0.0000 0.0000
vn -0.7755 0.2429 0.5827
vn -0.9957 0.0926 0.0000
vn -0.9957 0.0927 0.0000
vn -0.6220 0.4758 0.6219
vn -0.9339 0.3574 0.0000
vn -0.9596 0.2813 0.0000
vn -0.5198 0.6777 0.5201
vn -0.8378 0.5460 0.0000
vn -0.3851 0.8388 0.3849
vn -0.6761 0.7368 0.0000
vn -0.4271 0.9042 0.0000
vn -0.4268 0.9043 0.0000
vn -0.0690 0.9952 0.0691
vn -0.1374 0.9905 0.0000
vn -0.0000 0.3570 0.9341
vn -0.0000 0.5460 0.8378
vn -0.0000 0.7366 0.6763
vn -0.0000 0.9042 0.4270
vn 0.0000 0.9043 0.4269
vn 0.0000 0.9905 0.1376
vn 0.0000 -1.0000 -0.0000
vn 0.0000 0.2813 -0.9596
vn 0.9957 0.0929 0.0000
vn 0.9597 0.2810 0.0000
vn 0.8790 0.4768 0.0000
vn -0.9957 0.0925 -0.0000
vn -0.9596 0.2812 0.0000
vn -0.0000 0.2811 0.9597
usemtl _chess_board_quads_chessboard
s 1
f 1/1/1 2/2/1 3/3/1
f 4/4/2 5/5/2 2/6/2
f 6/7/3 7/8/4 5/5/5
f 8/9/6 9/10/7 7/8/4
f 10/11/8 11/12/9 9/10/7
f 12/13/10 13/14/11 11/12/9
f 14/15/12 15/16/13 13/14/11
f 2/6/14 16/17/15 17/18/14
f 5/5/5 18/19/16 16/17/15
f 7/8/4 19/20/17 18/19/17
f 9/10/7 20/21/18 19/20/19
f 11/12/9 21/22/20 20/21/18
f 13/14/11 22/23/21 21/22/20
f 15/16/13 23/24/22 22/23/21
f 24/25/23 25/26/23 23/24/22
f 26/27/23 24/25/23 15/16/13
f 16/28/24 27/29/24 28/30/24
f 18/31/25 29/32/25 27/29/25
f 27/33/26 1/34/26 30/35/26
f 29/32/27 4/36/28 1/1/29
f 31/37/30 6/38/31 4/36/32
f 32/39/33 8/40/34 6/38/31
f 33/41/35 10/42/36 8/40/34
f 34/43/37 12/44/38 10/42/36
f 35/45/39 14/46/40 12/44/38
f 36/47/23 26/48/23 14/46/40
f 19/49/41 31/37/30 29/32/27
f 20/50/42 32/39/33 31/37/30
f 21/51/43 33/41/35 32/39/33
f 22/52/44 34/43/45 33/41/35
f 23/53/46 35/45/39 34/43/45
f 25/54/23 36/47/23 35/45/39
f 3/55/47 17/56/47 28/57/47
f 37/58/23 38/59/23 39/60/23
f 40/61/23 37/62/23 41/63/23
f 42/64/23 40/65/23 43/66/23
f 44/67/23 42/68/23 45/69/23
f 46/70/23 44/71/23 47/72/23
f 48/73/23 46/74/23 49/75/23
f 50/76/23 48/77/23 51/78/23
f 52/79/23 50/80/23 53/81/23
f 54/82/23 55/83/23 38/84/23
f 56/85/23 54/86/23 37/87/23
f 57/88/23 56/89/23 40/90/23
f 58/91/23 57/92/23 42/93/23
f 59/94/23 58/95/23 44/96/23
f 60/97/23 59/98/23 46/99/23
f 61/100/23 60/101/23 48/102/23
f 62/103/23 61/104/23 50/105/23
f 63/106/23 64/107/23 55/108/23
f 65/109/23 63/110/23 54/111/23
f 66/112/23 65/113/23 56/114/23
f 67/115/23 66/116/23 57/117/23
f 68/118/23 67/119/23 58/120/23
f 69/121/23 68/122/23 59/123/23
f 70/124/23 69/125/23 60/126/23
f 71/127/23 70/128/23 61/129/23
f 72/130/23 73/131/23 64/132/23
f 74/133/23 72/134/23 63/135/23
f 75/136/23 74/137/23 65/138/23
f 76/139/23 75/140/23 66/141/23
f 77/142/23 76/143/23 67/144/23
f 78/145/23 77/146/23 68/147/23
f 79/148/23 78/149/23 69/150/23
f 80/151/23 53/152/23 81/153/23
f 82/154/23 83/155/23 84/156/23
f 85/157/23 82/158/23 86/159/23
f 87/160/23 85/161/23 88/162/23
f 89/163/23 87/164/23 90/165/23
f 91/166/23 89/167/23 92/168/23
f 93/169/23 91/170/23 94/171/23
f 95/172/23 93/173/23 96/174/23
f 97/175/23 95/176/23 98/177/23
f 99/178/23 100/179/23 83/180/23
f 101/181/23 99/182/23 82/183/23
f 102/184/23 101/185/23 85/186/23
f 103/187/23 102/188/23 87/189/23
f 104/190/23 103/191/23 89/192/23
f 105/193/23 104/194/23 91/195/23
f 106/196/23 105/197/23 93/198/23
f 107/199/23 106/200/23 95/201/23
f 108/202/23 109/203/23 100/204/23
f 110/205/23 108/206/23 99/207/23
f 111/208/23 110/209/23 101/210/23
f 112/211/23 111/212/23 102/213/23
f 113/214/23 112/215/23 103/216/23
f 114/217/23 113/218/23 104/219/23
f 81/220/23 114/221/23 105/222/23
f 115/223/23 81/224/23 106/225/23
f 41/226/23 39/227/23 109/228/23
f 43/229/23 41/230/23 108/231/23
f 45/232/23 43/233/23 110/234/23
f 47/235/23 45/236/23 111/237/23
f 49/238/23 47/239/23 112/240/23
f 51/241/23 49/242/23 113/243/23
f 53/244/23 51/245/23 114/246/23
f 116/247/23 79/248/23 70/249/23
f 30/250/1 1/1/1 3/3/1
f 1/34/2 4/4/2 2/6/2
f 4/4/48 6/7/3 5/5/5
f 6/7/3 8/9/6 7/8/4
f 8/9/6 10/11/8 9/10/7
f 10/11/8 12/13/10 11/12/9
f 12/13/10 14/15/12 13/14/11
f 3/251/14 2/6/14 17/18/14
f 2/6/49 5/5/5 16/17/15
f 5/5/50 7/8/4 18/19/17
f 7/8/51 9/10/7 19/20/19
f 9/10/7 11/12/9 20/21/18
f 11/12/9 13/14/11 21/22/20
f 13/14/11 15/16/13 22/23/21
f 15/16/13 24/25/23 23/24/22
f 14/15/12 26/27/23 15/16/13
f 17/252/24 16/28/24 28/30/24
f 16/28/25 18/31/25 27/29/25
f 28/253/26 27/33/26 30/35/26
f 27/29/52 29/32/27 1/1/29
f 29/32/53 31/37/30 4/36/32
f 31/37/30 32/39/33 6/38/31
f 32/39/33 33/41/35 8/40/34
f 33/41/35 34/43/37 10/42/36
f 34/43/37 35/45/39 12/44/38
f 35/45/39 36/47/23 14/46/40
f 18/31/54 19/49/41 29/32/27
f 19/49/41 20/50/42 31/37/30
f 20/50/42 21/51/43 32/39/33
f 21/51/43 22/52/44 33/41/35
f 22/52/44 23/53/46 34/43/45
f 23/53/46 25/54/23 35/45/39
f 30/254/47 3/55/47 28/57/47
f 41/255/23 37/58/23 39/60/23
f 43/256/23 40/61/23 41/63/23
f 45/257/23 42/64/23 43/66/23
f 47/258/23 44/67/23 45/69/23
f 49/259/23 46/70/23 47/72/23
f 51/260/23 48/73/23 49/75/23
f 53/261/23 50/76/23 51/78/23
f 80/262/23 52/79/23 53/81/23
f 37/263/23 54/82/23 38/84/23
f 40/264/23 56/85/23 37/87/23
f 42/265/23 57/88/23 40/90/23
f 44/266/23 58/91/23 42/93/23
f 46/267/23 59/94/23 44/96/23
f 48/268/23 60/97/23 46/99/23
f 50/269/23 61/100/23 48/102/23
f 52/270/23 62/103/23 50/105/23
f 54/271/23 63/106/23 55/108/23
f 56/272/23 65/109/23 54/111/23
f 57/273/23 66/112/23 56/114/23
f 58/274/23 67/115/23 57/117/23
f 59/275/23 68/118/23 58/120/23
f 60/276/23 69/121/23 59/123/23
f 61/277/23 70/124/23 60/126/23
f 62/278/23 71/127/23 61/129/23
f 63/279/23 72/130/23 64/132/23
f 65/280/23 74/133/23 63/135/23
f 66/281/23 75/136/23 65/138/23
f 67/282/23 76/139/23 66/141/23
f 68/283/23 77/142/23 67/144/23
f 69/284/23 78/145/23 68/147/23
f 70/285/23 79/148/23 69/150/23
f 115/286/23 80/151/23 81/153/23
f 86/287/23 82/154/23 84/156/23
f 88/288/23 85/157/23 86/159/23
f 90/289/23 87/160/23 88/162/23
f 92/290/23 89/163/23 90/165/23
f 94/291/23 91/166/23 92/168/23
f 96/292/23 93/169/23 94/171/23
f 98/293/23 95/172/23 96/174/23
f 117/294/23 97/175/23 98/177/23
f 82/295/23 99/178/23 83/180/23
f 85/296/23 101/181/23 82/183/23
f 87/297/23 102/184/23 85/186/23
f 89/298/23 103/187/23 87/189/23
f 91/299/23 104/190/23 89/192/23
f 93/300/23 105/193/23 91/195/23
f 95/301/23 106/196/23 93/198/23
f 97/302/23 107/199/23 95/201/23
f 99/303/23 108/202/23 100/204/23
f 101/304/23 110/205/23 99/207/23
f 102/305/23 111/208/23 101/210/23
f 103/306/23 112/211/23 102/213/23
f 104/307/23 113/214/23 103/216/23
f 105/308/23 114/217/23 104/219/23
f 106/309/23 81/220/23 105/222/23
f 107/310/23 115/223/23 106/225/23
f 108/311/23 41/226/23 109/228/23
f 110/312/23 43/229/23 108/231/23
f 111/313/23 45/232/23 110/234/23
f 112/314/23 47/235/23 111/237/23
f 113/315/23 49/238/23 112/240/23
f 114/316/23 51/241/23 113/243/23
f 81/317/23 53/244/23 114/246/23
f 71/318/23 116/247/23 70/249/23
o Cube
v 1.000000 -1.000000 -1.000000
v 1.000000 -1.000000 1.000000
v -1.000000 -1.000000 1.000000
v -1.000000 -1.000000 -1.000000
v 1.000000 1.000000 -0.999999
v 0.999999 1.000000 1.000001
v -1.000000 1.000000 1.000000
v -1.000000 1.000000 -1.000000
vn 0.0000 -1.0000 0.0000
vn 0.0000 1.0000 0.0000
vn 1.0000 0.0000 0.0000
vn -0.0000 -0.0000 1.0000
vn -1.0000 -0.0000 -0.0000
vn 0.0000 0.0000 -1.0000
usemtl Material
s off
f 118//55 119//55 120//55 121//55
f 122//56 125//56 124//56 123//56
f 118//57 122//57 123//57 119//57
f 119//58 123//58 124//58 120//58
f 120//59 124//59 125//59 121//59
f 122//60 118//60 121//60 125//60
